<svg xmlns="http://www.w3.org/2000/svg" width="11.244" height="12.536" viewBox="0 0 11.244 12.536">
  <path id="sync_alt_FILL0_wght400_GRAD0_opsz24" d="M99.226-814.625l1.244,1.244a.6.6,0,0,1,.188.458.659.659,0,0,1-.2.458.69.69,0,0,1-.458.188.6.6,0,0,1-.458-.188l-2.357-2.357a.575.575,0,0,1-.139-.213.724.724,0,0,1-.041-.245.724.724,0,0,1,.041-.245.574.574,0,0,1,.139-.213l2.357-2.357a.611.611,0,0,1,.45-.18.667.667,0,0,1,.466.18.637.637,0,0,1,.2.466.637.637,0,0,1-.2.466l-1.227,1.227h9.279a.634.634,0,0,1,.466.188.633.633,0,0,1,.188.466.633.633,0,0,1-.188.466.633.633,0,0,1-.466.188Zm8.085-5.237H98.031a.634.634,0,0,1-.466-.188.633.633,0,0,1-.188-.466.633.633,0,0,1,.188-.466.633.633,0,0,1,.466-.188h9.279l-1.244-1.244a.6.6,0,0,1-.188-.458.659.659,0,0,1,.2-.458.691.691,0,0,1,.458-.188.6.6,0,0,1,.458.188l2.357,2.357a.574.574,0,0,1,.139.213.724.724,0,0,1,.041.245.725.725,0,0,1-.041.245.576.576,0,0,1-.139.213L107-817.7a.61.61,0,0,1-.45.18.667.667,0,0,1-.466-.18.637.637,0,0,1-.2-.466.637.637,0,0,1,.2-.466Z" transform="translate(-812.276 -97) rotate(90)" fill="#fff"/>
</svg>
