<svg width="40" height="40" viewBox="0 0 40 40" fill="none" xmlns="http://www.w3.org/2000/svg">
<path d="M13.333 16.6665L26.6663 16.6665" stroke="@fill" stroke-width="3" stroke-linecap="round" stroke-linejoin="round"/>
<path d="M11.667 23.3335L13.3337 23.3335" stroke="@fill" stroke-width="3" stroke-linecap="round" stroke-linejoin="round"/>
<path d="M26.667 23.3335L28.3337 23.3335" stroke="@fill" stroke-width="3" stroke-linecap="round" stroke-linejoin="round"/>
<path d="M5 29.9998V18.7437C5 18.4728 5.05502 18.2048 5.16171 17.9558L9.4805 7.87867C9.79566 7.1433 10.5187 6.6665 11.3188 6.6665H28.6812C29.4813 6.6665 30.2043 7.1433 30.5195 7.87866L34.8383 17.9558C34.945 18.2048 35 18.4728 35 18.7437V29.9998M5 29.9998V34.3998C5 34.7312 5.26863 34.9998 5.6 34.9998H11.0667C11.398 34.9998 11.6667 34.7312 11.6667 34.3998V29.9998M5 29.9998H11.6667M35 29.9998V34.3998C35 34.7312 34.7314 34.9998 34.4 34.9998H28.9333C28.602 34.9998 28.3333 34.7312 28.3333 34.3998V29.9998M35 29.9998H28.3333M11.6667 29.9998H28.3333" stroke="@fill" stroke-width="3"/>
</svg>
