<svg width="24" height="24" viewBox="0 0 40 40" fill="none" xmlns="http://www.w3.org/2000/svg">
<path fill-rule="evenodd" clip-rule="evenodd" d="M6.8475 10.2145L3.78299 17.365C3.59628 17.8006 3.5 18.2697 3.5 18.7437V29.9998V34.3998C3.5 35.5596 4.4402 36.4998 5.6 36.4998H11.0667C12.2265 36.4998 13.1667 35.5596 13.1667 34.3998V31.4998H26.8333V34.3998C26.8333 35.5596 27.7735 36.4998 28.9333 36.4998H32.3364L24.5788 28.4998H11.6667H6.5V18.7437C6.5 18.676 6.51375 18.609 6.54043 18.5467L9.11101 12.5487L6.8475 10.2145ZM12.177 15.7105C11.9622 15.9701 11.833 16.3032 11.833 16.6665C11.833 17.4949 12.5046 18.1665 13.333 18.1665H14.5586L12.177 15.7105ZM22.9163 18.1665L20.0072 15.1665H26.6663C27.4948 15.1665 28.1663 15.8381 28.1663 16.6665C28.1663 17.4949 27.4948 18.1665 26.6663 18.1665H22.9163ZM29.1483 24.5932L26.483 21.8447C26.5433 21.8373 26.6047 21.8335 26.667 21.8335H28.3337C29.1621 21.8335 29.8337 22.5051 29.8337 23.3335C29.8337 23.8616 29.5607 24.326 29.1483 24.5932ZM32.9365 28.4998H33.5V18.7437C33.5 18.676 33.4862 18.609 33.4596 18.5467L34.8383 17.9558L33.4596 18.5467L29.1408 8.46954C29.062 8.2857 28.8812 8.1665 28.6812 8.1665H13.2193L10.4231 5.28289C10.7111 5.20664 11.0117 5.1665 11.3188 5.1665H28.6812C30.0813 5.1665 31.3467 6.00089 31.8982 7.28779L36.217 17.365C36.4037 17.8006 36.5 18.2697 36.5 18.7437V29.9998V32.1747L32.9365 28.4998ZM6.5 31.4998H10.1667V33.4998H6.5V31.4998ZM10.167 23.3335C10.167 24.1619 10.8386 24.8335 11.667 24.8335H13.3337C14.1621 24.8335 14.8337 24.1619 14.8337 23.3335C14.8337 22.5051 14.1621 21.8335 13.3337 21.8335H11.667C10.8386 21.8335 10.167 22.5051 10.167 23.3335Z" fill="@fill"/>
<path d="M7 6L35 35" stroke="@fill" stroke-width="3" stroke-linecap="round" stroke-linejoin="round"/>
</svg>
