<svg width="72" height="72" viewBox="0 0 72 72" fill="none" xmlns="http://www.w3.org/2000/svg">
<mask id="mask0_574_7214" style="mask-type:alpha" maskUnits="userSpaceOnUse" x="0" y="0" width="72" height="72">
<rect width="72" height="72" fill="#D9D9D9"/>
</mask>
<g mask="url(#mask0_574_7214)">
<path d="M19.4999 60C14.9499 60 11.0624 58.425 7.83738 55.275C4.61238 52.125 2.99988 48.275 2.99988 43.725C2.99988 39.825 4.17488 36.35 6.52488 33.3C8.87488 30.25 11.9499 28.3 15.7499 27.45C16.9999 22.85 19.4999 19.125 23.2499 16.275C26.9999 13.425 31.2499 12 35.9999 12C41.8499 12 46.8124 14.0375 50.8874 18.1125C54.9624 22.1875 56.9999 27.15 56.9999 33C60.4499 33.4 63.3124 34.8875 65.5874 37.4625C67.8624 40.0375 68.9999 43.05 68.9999 46.5C68.9999 50.25 67.6874 53.4375 65.0624 56.0625C62.4374 58.6875 59.2499 60 55.4999 60H19.4999Z" fill="white"/>
</g>
</svg>
