<svg xmlns="http://www.w3.org/2000/svg" viewBox="0 0 24 24">
  <path fill="currentColor" fill-rule="evenodd"
        d="M5.25 4.593v8.903q.162-.053.34-.108c.761-.231 1.788-.488 2.66-.488c1.418 0 2.74.432 3.934.821l.049.016c1.245.406 2.358.763 3.517.763c.936 0 2.256-.36 3-.593V5.073c-.806.232-2.015.527-3 .527c-1.418 0-2.74-.432-3.934-.821l-.049-.016C10.522 4.357 9.41 4 8.25 4c-.652 0-1.51.178-2.248.375c-.287.076-.545.153-.752.218m0 10.488c.21-.075.479-.167.777-.258c.737-.224 1.586-.423 2.223-.423c1.16 0 2.272.357 3.517.763l.049.016c1.193.39 2.516.821 3.934.821c1.289 0 2.977-.507 3.648-.725c.522-.168.852-.653.852-1.177V4.759c0-.87-.85-1.448-1.642-1.208c-.781.237-1.99.549-2.858.549c-1.16 0-2.272-.357-3.517-.763l-.049-.016C10.991 2.931 9.668 2.5 8.25 2.5c-.858 0-1.874.222-2.635.425a21 21 0 0 0-1.337.408l-.021.008l-.006.002h-.002l.251.707l-.252-.706a.75.75 0 0 0-.498.706v16.7a.75.75 0 0 0 1.5 0z"
        clip-rule="evenodd"/>
</svg>