<svg id="Layer_2" data-name="Layer 2" xmlns="http://www.w3.org/2000/svg" width="14.222" height="16" viewBox="0 0 14.222 16">
  <path id="Tracé_840" data-name="Tracé 840" d="M17.573,4.493a1.591,1.591,0,0,0-1.422-.222,6.693,6.693,0,0,1-1.929.249,7.591,7.591,0,0,1-2.782-.693A9.022,9.022,0,0,0,8,3,5.588,5.588,0,0,0,4.267,4.013.889.889,0,0,0,4,4.653V18.111a.889.889,0,0,0,1.778,0V14.289A5.582,5.582,0,0,1,8,13.924a7.591,7.591,0,0,1,2.782.693,9.022,9.022,0,0,0,3.44.827,6.809,6.809,0,0,0,3.111-.622,1.547,1.547,0,0,0,.889-1.378V5.764a1.573,1.573,0,0,0-.649-1.271ZM16.444,13.3a5.618,5.618,0,0,1-2.222.364,7.431,7.431,0,0,1-2.782-.7A9.191,9.191,0,0,0,8,12.147a8.453,8.453,0,0,0-2.222.258V5.151A5.449,5.449,0,0,1,8,4.778a7.431,7.431,0,0,1,2.782.7,9.191,9.191,0,0,0,3.44.818,8.364,8.364,0,0,0,2.222-.267Z" transform="translate(-4 -3)" fill="#f67280"/>
</svg>
