<svg xmlns="http://www.w3.org/2000/svg" height="48" viewBox="0 96 960 960" width="48"><path d="M477 936q-142 0-243.5-95.5T121 605q-1-12 7.5-21t21.5-9q12 0 20.5 8.5T181 605q11 115 95 193t201 78q127 0 215-89t88-216q0-124-89-209.5T477 276q-68 0-127.5 31T246 389h75q13 0 21.5 8.5T351 419q0 13-8.5 21.5T321 449H172q-13 0-21.5-8.5T142 419V271q0-13 8.5-21.5T172 241q13 0 21.5 8.5T202 271v76q52-61 123.5-96T477 216q75 0 141 28t115.5 76.5Q783 369 811.5 434T840 574q0 75-28.5 141t-78 115Q684 879 618 907.5T477 936Zm34-374 115 113q9 9 9 21.5t-9 21.5q-9 9-21 9t-21-9L460 596q-5-5-7-10.5t-2-11.5V403q0-13 8.5-21.5T481 373q13 0 21.5 8.5T511 403v159Z" fill="@fill"/></svg>
