<svg width="84" height="84" viewBox="0 0 84 84" fill="none" xmlns="http://www.w3.org/2000/svg">
  <path d="M82.5 42C82.5 64.3675 64.3675 82.5 42 82.5C19.6325 82.5 1.5 64.3675 1.5 42C1.5 19.6325 19.6325 1.5 42 1.5C64.3675 1.5 82.5 19.6325 82.5 42Z" stroke="@fill" stroke-width="3"/>
  <path fill-rule="evenodd" clip-rule="evenodd" d="M15.0448 23.9241C15.0616 23.1954 15.075 22.5486 15.075 22H24.5392C24.5392 22.8147 24.5291 23.6375 24.5224 24.4604C24.4587 30.7199 24.3917 37.1022 28.0057 42.1295C31.8846 47.5292 41.6673 53.0805 67.1298 49.089L68.3333 60.5518C42.2707 64.6374 28.0895 59.778 20.8883 49.7522C14.666 41.0773 14.914 29.8152 15.0448 23.9241Z" fill="@fill"/>
</svg>

