<svg width="24" height="24" viewBox="0 0 50 50" fill="none" xmlns="http://www.w3.org/2000/svg">
<path fill-rule="evenodd" clip-rule="evenodd" d="M26.9723 4.21926C31.7994 4.69003 36.311 6.83022 39.7293 10.2708L39.8335 10.3125C43.2741 13.7308 45.4143 18.2424 45.885 23.0695C46.3558 27.8967 45.1277 32.7368 42.4124 36.7555C39.697 40.7741 35.6647 43.7195 31.0105 45.0838C26.3563 46.4481 21.372 46.1459 16.9168 44.2292C16.4962 44.0518 16.0366 43.9872 15.5835 44.0417L6.66679 45.8333H6.25012C5.96897 45.8405 5.68928 45.7907 5.4279 45.6868C5.16653 45.583 4.92888 45.4273 4.72929 45.2292C4.48582 44.9845 4.30695 44.6832 4.20877 44.3522C4.11058 44.0213 4.09616 43.6712 4.16679 43.3333L6.00012 34.5208C6.07794 34.0677 6.0124 33.6016 5.81262 33.1875C3.89591 28.7323 3.59365 23.748 4.95797 19.0938C6.32228 14.4396 9.26767 10.4073 13.2863 7.69195C17.305 4.97663 22.1451 3.74849 26.9723 4.21926Z" fill="@fill"/>
</svg>
