<svg width="16" height="19" viewBox="0 0 16 19" fill="none" xmlns="http://www.w3.org/2000/svg">
<path d="M2.66675 11.0882V17.4412C2.66675 17.7376 2.56675 17.9918 2.37675 18.1929C2.18675 18.3941 1.94675 18.5 1.66675 18.5C1.38675 18.5 1.14675 18.3941 0.956748 18.1929C0.766748 17.9918 0.666748 17.7376 0.666748 17.4412V1.55882C0.666748 1.26235 0.766748 1.00824 0.956748 0.807059C1.14675 0.605882 1.38675 0.5 1.66675 0.5H8.84675C9.07675 0.5 9.28675 0.584706 9.47675 0.743529C9.66675 0.902353 9.77675 1.10353 9.82675 1.35765L10.0767 2.62824H14.6767C14.9567 2.62824 15.1967 2.73412 15.3867 2.93529C15.5767 3.13647 15.6767 3.39059 15.6767 3.68706V12.1576C15.6767 12.4541 15.5767 12.7082 15.3867 12.9094C15.1967 13.1106 14.9567 13.2165 14.6767 13.2165H9.49675C9.26675 13.2165 9.05675 13.1318 8.86675 12.9729C8.67675 12.8141 8.56675 12.6129 8.51675 12.3588L8.26675 11.0882H2.66675ZM10.3167 11.0882H13.6667V4.73529H9.23675C9.00675 4.73529 8.79675 4.65059 8.60675 4.49176C8.42675 4.33294 8.30675 4.13176 8.25675 3.87765L8.00675 2.60706H2.66675V8.96H9.09675C9.32675 8.96 9.53675 9.04471 9.72675 9.20353C9.91675 9.36235 10.0267 9.56353 10.0767 9.81765L10.3267 11.0882H10.3167Z" fill="#FF787B"/>
</svg>
