<svg width="15" height="18" viewBox="0 0 15 18" fill="none" xmlns="http://www.w3.org/2000/svg">
<path fill-rule="evenodd" clip-rule="evenodd" d="M0 7.1307C0 3.1986 3.2301 0 7.2 0C11.1699 0 14.4 3.1986 14.4 7.1307C14.4 12.0573 8.0559 17.5518 7.7859 17.7831C7.6167 17.928 7.4088 18 7.2 18C6.9912 18 6.7833 17.928 6.6141 17.7831C6.3441 17.5518 0 12.0573 0 7.1307ZM7.19987 9.90006C5.46287 9.90006 4.04987 8.48706 4.04987 6.75006C4.04987 5.01306 5.46287 3.60006 7.19987 3.60006C8.93687 3.60006 10.3499 5.01306 10.3499 6.75006C10.3499 8.48706 8.93687 9.90006 7.19987 9.90006ZM7.20006 5.39994C6.45576 5.39994 5.85006 6.00564 5.85006 6.74994C5.85006 7.49424 6.45576 8.09994 7.20006 8.09994C7.94436 8.09994 8.55006 7.49424 8.55006 6.74994C8.55006 6.00564 7.94436 5.39994 7.20006 5.39994Z" fill="#FF787B"/>
</svg>
