<svg xmlns="http://www.w3.org/2000/svg" width="24" height="24" viewBox="0 0 32 32">
  <path fill="currentColor"
        d="M16 3c-3.845 0-7 3.155-7 7v2.875A9.97 9.97 0 0 0 6 20c0 5.51 4.49 10 10 10s10-4.49 10-10a9.97 9.97 0 0 0-3-7.125V10c0-3.845-3.155-7-7-7m0 2c2.755 0 5 2.245 5 5v1.375C19.525 10.515 17.826 10 16 10s-3.525.516-5 1.375V10c0-2.755 2.245-5 5-5m0 7c4.43 0 8 3.57 8 8s-3.57 8-8 8s-8-3.57-8-8s3.57-8 8-8m0 6a2 2 0 0 0-2 2c0 .74.403 1.373 1 1.72V25h2v-3.28c.597-.347 1-.98 1-1.72a2 2 0 0 0-2-2"/>
</svg>