<svg width="612" height="594" viewBox="0 0 612 594" fill="none" xmlns="http://www.w3.org/2000/svg">
<rect width="612" height="594" />
<path d="M447 334H327.5L304 225C301 216.333 287.5 198.8 257.5 198C227.5 197.2 219.333 229 219 245C226.833 286.833 242.9 372.1 244.5 378.5C246.5 386.5 251.5 386 257.5 391.5C262.3 395.9 270.5 397 274 397H414C412.667 428.667 410.8 494.5 414 504.5C418 517 430 526.5 447 527.5C460.6 528.3 471.333 512.5 475 504.5V365C475 359.5 474 355 467 345.5C461.4 337.9 451.333 334.667 447 334Z" fill="@fill"/>
<circle cx="249" cy="120" r="69" fill="@fill"/>
<path d="M130 254.498L158.5 352.998C165.5 380.498 180.7 438.198 185.5 448.998C191.5 462.498 193 459.998 200.5 465.498C206.5 469.898 216.667 470.331 221 469.998H344.5C357 469.998 364 459.498 367 440.498C369.4 425.298 351 414.165 341.5 410.498H258.5C253 410.498 249 408.998 243.5 405.998C239.1 403.598 235.333 397.331 234 394.498L213.5 327.998C205.167 298.165 187.9 237.598 185.5 233.998C182.5 229.498 169.5 221.998 152 224.498C138 226.498 131.5 245.331 130 254.498Z" fill="@fill"/>
</svg>
