<svg width="24" height="23" viewBox="0 0 24 23" fill="none" xmlns="http://www.w3.org/2000/svg">
<path d="M18 2V17.4286C18 17.9539 17.8965 18.474 17.6955 18.9593C17.4945 19.4446 17.1999 19.8856 16.8284 20.257C16.457 20.6284 16.016 20.9231 15.5307 21.1241C15.0454 21.3251 14.5253 21.4286 14 21.4286C13.4747 21.4286 12.9546 21.3251 12.4693 21.1241C11.984 20.9231 11.543 20.6284 11.1716 20.257C10.8001 19.8856 10.5055 19.4446 10.3045 18.9593C10.1035 18.474 10 17.9539 10 17.4286V7.14286C10 6.08199 9.57857 5.06458 8.82843 4.31443C8.07828 3.56428 7.06087 3.14286 6 3.14286C4.93913 3.14286 3.92172 3.56428 3.17157 4.31443C2.42143 5.06458 2 6.08199 2 7.14286V20.8571M18 2L22 6M18 2L14 6" stroke="@fill" stroke-width="2.5" stroke-linecap="round" stroke-linejoin="round"/>
</svg>
