<svg width="1600" height="1000" viewBox="0 0 1600 1000" fill="none" xmlns="http://www.w3.org/2000/svg">
<rect width="1600" height="1000" fill="black"/>
<path fill-rule="evenodd" clip-rule="evenodd" d="M705.576 483.391V559.329H671.477V483.391H705.576Z" fill="white"/>
<path fill-rule="evenodd" clip-rule="evenodd" d="M452.168 447.243C452.231 445.007 452.281 443.022 452.281 441.338H487.75C487.75 443.838 487.712 446.364 487.687 448.889C487.448 468.1 487.197 487.688 500.741 503.116C515.278 519.689 551.941 536.726 647.366 524.476L651.877 559.656C554.202 572.195 501.055 557.281 474.067 526.511C450.748 499.887 451.678 465.323 452.168 447.243Z" fill="white"/>
<path d="M708.541 455.196C708.541 464.745 699.18 472.472 687.621 472.472C676.062 472.472 666.702 464.733 666.702 455.196C666.702 445.66 676.062 437.921 687.621 437.921C699.18 437.921 708.541 445.66 708.541 455.196Z" fill="white"/>
<path fill-rule="evenodd" clip-rule="evenodd" d="M901.554 535.193V559.329V561.603H867.455V559.329V532.806V441.1H901.554V454.204C901.554 456.327 903.979 457.546 905.662 456.277C909.683 453.262 913.967 450.535 918.491 448.136L923.918 445.271C957.314 427.643 997.482 451.867 997.482 489.635V561.603H963.383V489.635C962.767 469.834 936.709 475.124 936.709 475.124C936.709 475.124 915.551 476.267 905.562 500.503C902.094 508.959 901.554 520.204 901.554 535.193Z" fill="white"/>
<path fill-rule="evenodd" clip-rule="evenodd" d="M1056.84 524.765C1054.18 522.931 1051.27 520.229 1049.09 515.882C1048.05 513.784 1049.72 511.372 1052.06 511.56C1063.67 512.527 1076.51 512.678 1093.77 510.479C1119.8 505.856 1128.26 501.898 1137.81 497.639C1137.81 488.605 1136.69 473.679 1128.01 460.7C1118.5 446.49 1102.13 437.695 1078.32 437.695C1056 437.695 1038.63 443.851 1027.23 456.767C1016.17 469.294 1013.41 485.25 1013.41 499.046C1013.41 525.33 1024.81 541.89 1038.5 551.338C1051.17 560.083 1064.46 562.282 1067.84 562.734L1067.89 562.747C1086.57 565.209 1101.41 563.752 1113.56 560.46C1125.85 557.131 1134.5 551.678 1141 546.514L1120.92 521.234C1116.96 524.376 1111.35 527.793 1105.56 529.301C1073.23 537.694 1056.84 524.765 1056.84 524.765ZM1103.8 479.81C1099.5 480.539 1090.03 481.381 1084.77 482.122C1067.03 484.233 1065.88 485.25 1047.45 487.474C1048.48 480.815 1052.3 476.028 1054 474.634C1058.52 470.952 1061.47 467.472 1077.95 466.366C1077.94 466.366 1098.34 466.015 1103.8 479.81Z" fill="white"/>
<path fill-rule="evenodd" clip-rule="evenodd" d="M801.266 497.476C794.004 495.264 786.189 494.159 777.809 494.159C770.66 494.159 763.988 494.787 757.807 496.043C751.638 497.174 745.946 498.996 740.757 501.521C735.568 504.034 731.447 507.502 728.406 511.899C725.466 516.184 723.996 521.272 723.996 527.19C723.996 531.851 724.637 536.123 725.906 540.031C727.175 543.8 728.796 546.954 730.756 549.466C732.716 551.854 735.266 553.939 738.408 555.698C741.549 557.457 744.539 558.776 747.378 559.656C750.218 560.535 753.698 561.227 757.819 561.729C761.94 562.232 765.37 562.546 768.109 562.671C768.109 562.671 793.414 563.664 813.353 551.753C813.655 555.145 814.258 558.513 815.137 561.817L815.175 561.943H849.274L848.521 557.08C847.804 552.469 847.453 547.808 847.453 543.134V526.863V517.817V507.866C847.453 503.783 847.201 499.699 846.598 495.666C844.462 481.255 839.173 469.621 831.421 460.65C820.188 447.646 805.651 442.394 794.18 440.848C758.988 436.112 734.085 450.611 720.604 461.554L741.9 488.567C750.909 481.255 766.727 472.058 789.682 475.136C795.298 475.89 801.342 478.34 805.752 483.441C807.938 485.967 810.237 489.749 811.758 495.44C812.537 498.368 809.622 500.918 806.832 499.75C803.716 498.43 801.266 497.476 801.266 497.476ZM811.758 526.285C811.758 526.989 811.456 527.68 810.916 528.132C809.358 529.452 806.129 530.896 801.204 532.454C795.072 534.276 788.35 535.181 781.013 535.181C766.652 535.181 759.465 532.63 759.465 527.542C759.465 525.117 761.274 523.358 764.893 522.265C768.511 521.046 774.492 519.966 782.822 519.966C797.673 519.966 806.971 521.637 810.727 524.275C811.368 524.74 811.758 525.494 811.758 526.285Z" fill="white"/>
</svg>