<svg width="24" height="24" viewBox="0 0 24 24" fill="none" xmlns="http://www.w3.org/2000/svg">
<path fill-rule="evenodd" clip-rule="evenodd" d="M11.729 5.00301C17.706 4.81601 21.229 10.39 21.868 11.502C22.044 11.811 22.044 12.189 21.868 12.498C21.014 13.986 17.798 18.856 12.271 18.997C12.188 18.999 12.106 19 12.025 19C6.162 19 2.762 13.595 2.132 12.498C1.956 12.189 1.956 11.811 2.132 11.502C2.986 10.014 6.202 5.14401 11.729 5.00301ZM12 15.5C10.07 15.5 8.5 13.93 8.5 12C8.5 10.07 10.07 8.50001 12 8.50001C13.93 8.50001 15.5 10.07 15.5 12C15.5 13.93 13.93 15.5 12 15.5ZM12 10.5C11.173 10.5 10.5 11.173 10.5 12C10.5 12.827 11.173 13.5 12 13.5C12.827 13.5 13.5 12.827 13.5 12C13.5 11.173 12.827 10.5 12 10.5Z" fill="white"/>
<mask id="mask0_602_9992" style="mask-type:luminance" maskUnits="userSpaceOnUse" x="2" y="4" width="20" height="15">
<path fill-rule="evenodd" clip-rule="evenodd" d="M11.729 5.00301C17.706 4.81601 21.229 10.39 21.868 11.502C22.044 11.811 22.044 12.189 21.868 12.498C21.014 13.986 17.798 18.856 12.271 18.997C12.188 18.999 12.106 19 12.025 19C6.162 19 2.762 13.595 2.132 12.498C1.956 12.189 1.956 11.811 2.132 11.502C2.986 10.014 6.202 5.14401 11.729 5.00301ZM12 15.5C10.07 15.5 8.5 13.93 8.5 12C8.5 10.07 10.07 8.50001 12 8.50001C13.93 8.50001 15.5 10.07 15.5 12C15.5 13.93 13.93 15.5 12 15.5ZM12 10.5C11.173 10.5 10.5 11.173 10.5 12C10.5 12.827 11.173 13.5 12 13.5C12.827 13.5 13.5 12.827 13.5 12C13.5 11.173 12.827 10.5 12 10.5Z" fill="white"/>
</mask>
<g mask="url(#mask0_602_9992)">
</g>
</svg>
