<svg width="289" height="614" viewBox="0 0 289 614" fill="none" xmlns="http://www.w3.org/2000/svg">
<path d="M215.857 238.713C211.831 319.747 278.869 392.424 272.011 473.262" stroke="white" stroke-width="33" stroke-miterlimit="10" stroke-linecap="round"/>
<path d="M188.623 431.652C189.522 349.839 193.118 311.18 212.897 261.733C220.035 243.896 187.247 254.208 168.035 254.774L150.216 255.296C132.289 255.826 114.272 240.507 117.599 258.137C135.58 353.435 134.681 431.652 134.681 431.652L133.782 457.724C137.584 413.608 186.591 411.819 190.421 457.724L188.623 431.652Z" fill="white" stroke="white" stroke-width="34.3296" stroke-miterlimit="10" stroke-linecap="round" stroke-linejoin="round"/>
<path d="M134.213 595.87C131.831 547.933 129.457 481.683 135.948 434.124C137.261 424.477 139.041 414.597 144.193 406.334C149.344 398.072 153.228 391.698 162.92 392.687C171.362 393.55 174.904 399.798 179.039 407.216C183.175 414.633 184.793 423.138 186.268 431.499C194.404 477.565 199.061 544.778 202.001 591.465" stroke="white" stroke-width="34.3296" stroke-miterlimit="10" stroke-linecap="round"/>
<path d="M134.914 403.53C141.675 362.21 122.795 320.117 104.167 282.618C85.5391 245.119 61.6246 210.29 45.2081 171.775C28.7917 133.26 2.97125 71.5861 27.2453 16.7446" stroke="white" stroke-width="33" stroke-miterlimit="10" stroke-linecap="round"/>
<path d="M217.536 186.447C197.847 163.009 161.076 156.176 134.15 170.75C107.224 185.323 92.8211 219.595 101.002 249.101C104.023 260.007 109.894 270.265 118.498 277.619C131.399 288.641 149.362 292.246 166.291 291.005C187.085 289.486 213.445 284.685 223.919 264.735C236.721 240.371 235.508 207.844 217.536 186.447Z" fill="white"/>
<path d="M215.133 185.972C193.849 162.001 155.167 155.895 127.386 171.905C99.6041 187.915 85.4991 224.2 94.9077 254.84C98.3824 266.163 104.816 276.733 114.034 284.179C127.862 295.352 146.758 298.611 164.449 296.835C186.178 294.654 213.642 288.881 224.042 267.709C236.751 241.851 234.561 207.85 215.133 185.972Z" fill="white"/>
<path d="M163.735 203.361L188.874 240.575C200.044 257.115 184.115 276.321 160.188 275.139C136.27 273.958 122.3 253.278 135.049 237.918L163.735 203.361Z" fill="#FF5B22"/>
<path fill-rule="evenodd" clip-rule="evenodd" d="M179.975 235.635C165.632 227.729 150.813 231.487 146.783 233.478C136.557 238.529 124.142 234.366 119.065 224.176C113.987 213.987 118.16 201.633 128.394 196.574C141.126 190.286 170.733 183.482 199.974 199.587C209.97 205.09 213.595 217.627 208.066 227.578C202.552 237.53 189.97 241.138 179.975 235.635Z" fill="#FF5B22"/>
<path d="M139.222 206.946C143.379 207.152 146.576 210.681 146.378 214.836C146.172 218.991 143.348 213.495 139.191 213.289C135.034 213.083 131.123 218.245 131.329 214.09C131.535 209.943 135.066 206.74 139.222 206.946Z" fill="#2F3396"/>
<path d="M188.462 209.38C192.619 209.586 195.816 213.115 195.617 217.27C195.411 221.425 192.587 215.93 188.43 215.723C184.273 215.517 180.362 220.679 180.568 216.524C180.775 212.377 184.313 209.174 188.462 209.38Z" fill="#2F3396"/>
<path d="M160.856 261.667C168.884 262.064 175.841 257.02 177.729 249.963C178.134 248.433 176.873 246.974 175.302 247.093L173.676 247.219C165.568 247.838 157.413 247.434 149.408 246.006L147.933 245.745C146.386 245.467 144.974 246.799 145.236 248.361C146.402 255.569 152.828 261.271 160.856 261.667Z" fill="#2F3396"/>
</svg>
