<svg width="48" height="45" viewBox="0 0 48 45" fill="none" xmlns="http://www.w3.org/2000/svg">
<path d="M42.217 7.55789C34.9194 -0.328627 21.6568 -2.33743 12.1314 2.92981C2.60611 8.19705 -2.22728 20.1351 0.995887 30.2156C2.18723 33.9411 4.39313 37.4186 7.55374 39.8683C12.2946 43.5442 18.7736 44.6164 24.8391 44.032C32.2891 43.3146 41.7057 41.4154 45.2716 34.4498C49.629 25.9424 48.8782 14.7557 42.217 7.55789Z" fill="#FFB545"/>
<path d="M23.2404 13.0291L32.8691 24.5602C37.1476 29.6866 32.2381 36.4095 24.0319 36.6626C15.8258 36.9157 10.4756 30.5084 14.4032 25.1289L23.2404 13.0291Z" fill="#0B79F9"/>
<path fill-rule="evenodd" clip-rule="evenodd" d="M29.686 23.1772C24.5643 20.9701 19.6058 22.5981 18.2839 23.3572C14.9302 25.2878 10.5728 24.2547 8.55456 21.0484C6.53634 17.8448 7.61617 13.681 10.9726 11.7505C15.1478 9.34777 25.0757 6.32413 35.5176 10.8244C39.0862 12.3636 40.6747 16.3734 39.0645 19.7857C37.4542 23.1981 33.2573 24.7164 29.686 23.1772Z" fill="#0B79F9"/>
<path d="M15.0449 19.817C16.472 19.817 17.6289 18.7073 17.6289 17.3386C17.6289 15.9698 16.472 14.8602 15.0449 14.8602C13.6178 14.8602 12.4609 15.9698 12.4609 17.3386C12.4609 18.7073 13.6178 19.817 15.0449 19.817Z" fill="#23278A"/>
<path d="M31.9414 19.2953C33.3685 19.2953 34.5254 18.1857 34.5254 16.8169C34.5254 15.4481 33.3685 14.3385 31.9414 14.3385C30.5143 14.3385 29.3574 15.4481 29.3574 16.8169C29.3574 18.1857 30.5143 19.2953 31.9414 19.2953Z" fill="#23278A"/>
<path d="M23.9745 31.9063C26.9502 31.8489 29.4906 30.4584 30.2196 29.6522C30.4154 29.4357 30.1869 29.1618 29.8061 29.1696L29.4199 29.2296C25.786 29.8009 22.0243 29.8635 18.3741 29.4148L18.1538 29.3887C17.792 29.3966 17.5527 29.6601 17.7404 29.8635C18.472 30.654 20.9662 31.9611 23.9745 31.9063Z" fill="#2F3396"/>
</svg>
