<svg width="32" height="40" viewBox="0 0 42 52" fill="none" xmlns="http://www.w3.org/2000/svg">
<path d="M20.8 25.35C22.0567 25.35 23.1292 24.9058 24.0175 24.0175C24.9058 23.1292 25.35 22.0567 25.35 20.8C25.35 19.5433 24.9058 18.4708 24.0175 17.5825C23.1292 16.6942 22.0567 16.25 20.8 16.25C19.5433 16.25 18.4708 16.6942 17.5825 17.5825C16.6942 18.4708 16.25 19.5433 16.25 20.8C16.25 22.0567 16.6942 23.1292 17.5825 24.0175C18.4708 24.9058 19.5433 25.35 20.8 25.35ZM20.8 52C13.8233 46.0633 8.6125 40.5492 5.1675 35.4575C1.7225 30.3658 0 25.6533 0 21.32C0 14.82 2.09083 9.64167 6.2725 5.785C10.4542 1.92833 15.2967 0 20.8 0C26.3033 0 31.1458 1.92833 35.3275 5.785C39.5092 9.64167 41.6 14.82 41.6 21.32C41.6 25.6533 39.8775 30.3658 36.4325 35.4575C32.9875 40.5492 27.7767 46.0633 20.8 52Z" fill="@fill"/>
</svg>
