<svg width="512" height="95" viewBox="0 0 512 95" fill="none" xmlns="http://www.w3.org/2000/svg">
    <g>
        <path fill-rule="evenodd" clip-rule="evenodd" d="M188.434 34.3171V90.7473H163.095V34.3171H188.434Z" fill="white"/>
        <path fill-rule="evenodd" clip-rule="evenodd" d="M0.124731 7.45523C0.171414 5.79333 0.20876 4.31814 0.20876 3.06705H26.5659C26.5659 4.92503 26.5379 6.80169 26.5192 8.67831C26.3418 22.9539 26.1551 37.5096 36.2199 48.975C47.0223 61.2898 74.2665 73.9501 145.178 64.847L148.529 90.9893C75.9472 100.307 36.4533 89.2249 16.3984 66.3596C-0.930303 46.5753 -0.239395 20.8906 0.124731 7.45523Z" fill="white"/>
        <path d="M190.636 13.3653C190.636 20.4611 183.681 26.2031 175.091 26.2031C166.502 26.2031 159.546 20.4518 159.546 13.3653C159.546 6.2789 166.502 0.527557 175.091 0.527557C183.681 0.527557 190.636 6.2789 190.636 13.3653Z" fill="white"/>
        <path fill-rule="evenodd" clip-rule="evenodd" d="M334.066 72.811V90.7465V92.4366H308.727V90.7465V71.0369V2.88944H334.066V12.6275C334.066 14.2053 335.868 15.111 337.12 14.168C340.107 11.9272 343.291 9.9012 346.652 8.11792L350.685 5.98919C375.502 -7.11004 405.351 10.8909 405.351 38.9567V92.4366H380.012V38.9567C379.554 24.2422 360.19 28.1729 360.19 28.1729C360.19 28.1729 344.467 29.0225 337.045 47.0328C334.468 53.3161 334.066 61.6726 334.066 72.811Z" fill="white"/>
        <path fill-rule="evenodd" clip-rule="evenodd" d="M449.463 65.0618C447.483 63.6989 445.319 61.6913 443.705 58.461C442.927 56.9017 444.172 55.1089 445.907 55.2489C454.532 55.9679 464.076 56.08 476.903 54.4463C496.251 51.0102 502.534 48.0693 509.627 44.9043C509.627 38.1912 508.798 27.0994 502.347 17.4547C495.278 6.89505 483.112 0.359436 465.418 0.359436C448.836 0.359436 435.928 4.93436 427.458 14.5323C419.241 23.8409 417.187 35.6984 417.187 45.9501C417.187 65.4819 425.656 77.7874 435.834 84.8088C445.242 91.3068 455.12 92.9409 457.633 93.277L457.672 93.2863C471.554 95.1161 482.579 94.0333 491.609 91.5869C500.741 89.1129 507.172 85.0609 512 81.2236L497.08 62.4383C494.138 64.7723 489.964 67.3121 485.661 68.4326C461.64 74.6691 449.463 65.0618 449.463 65.0618ZM484.354 31.6556C481.159 32.1971 474.121 32.8227 470.219 33.3735C457.034 34.9421 456.178 35.6984 442.479 37.3509C443.246 32.4025 446.082 28.8453 447.354 27.8089C450.704 25.0733 452.898 22.4871 465.15 21.6655C465.138 21.6655 480.303 21.4041 484.354 31.6556Z" fill="white"/>
        <path fill-rule="evenodd" clip-rule="evenodd" d="M259.542 44.7825C254.146 43.1391 248.338 42.3174 242.111 42.3174C236.798 42.3174 231.841 42.7843 227.247 43.718C222.663 44.5584 218.433 45.9119 214.577 47.7887C210.721 49.6562 207.659 52.233 205.4 55.5007C203.215 58.6847 202.123 62.466 202.123 66.8635C202.123 70.3273 202.598 73.5016 203.541 76.4055C204.484 79.2063 205.689 81.5496 207.145 83.4171C208.602 85.1912 210.497 86.7408 212.831 88.0481C215.166 89.3553 217.388 90.3353 219.498 90.9889C221.608 91.6426 224.194 92.1561 227.256 92.5296C230.319 92.9031 232.868 93.1365 234.903 93.2299C234.903 93.2299 253.707 93.9676 268.524 85.1165C268.748 87.6372 269.196 90.1392 269.85 92.595L269.878 92.6884H295.217L294.657 89.0752C294.125 85.6483 293.863 82.1846 293.863 78.7114V66.6207V59.8982V52.5037C293.863 49.4695 293.677 46.4348 293.229 43.4379C291.641 32.7289 287.711 24.0832 281.95 17.4169C273.603 7.75354 262.801 3.85087 254.276 2.70247C228.125 -0.817419 209.62 9.95697 199.601 18.0891L215.427 38.1628C222.121 32.7289 233.876 25.8945 250.934 28.182C255.108 28.7422 259.598 30.5628 262.875 34.3534C264.5 36.2301 266.208 39.0404 267.338 43.2698C267.917 45.4455 265.751 47.3406 263.678 46.4722C261.363 45.4921 259.542 44.7825 259.542 44.7825ZM267.338 66.1912C267.338 66.7141 267.114 67.2276 266.713 67.5638C265.555 68.5438 263.156 69.6176 259.496 70.7754C254.939 72.1294 249.944 72.8013 244.492 72.8013C233.82 72.8013 228.48 70.9062 228.48 67.1249C228.48 65.3228 229.824 64.0156 232.513 63.2036C235.202 62.2979 239.646 61.4949 245.836 61.4949C256.872 61.4949 263.781 62.7367 266.573 64.6972C267.049 65.0427 267.338 65.6029 267.338 66.1912Z" fill="white"/>
    </g>
</svg>

