<svg width="1316" height="243" viewBox="0 0 1316 243" fill="none" xmlns="http://www.w3.org/2000/svg">
    <path fill-rule="evenodd" clip-rule="evenodd" d="M484.334 88.2056V233.249H419.204V88.2056H484.334Z" fill="white"/>
    <path fill-rule="evenodd" clip-rule="evenodd" d="M0.320597 19.1623C0.440587 14.8907 0.536578 11.099 0.536578 7.8833H68.2826C68.2826 12.6589 68.2106 17.4825 68.1626 22.306C67.7067 58.9988 67.2267 96.4115 93.0965 125.881C120.862 157.534 190.888 190.075 373.152 166.677L381.767 233.871C195.208 257.821 93.6964 229.336 42.1489 170.565C-2.39117 119.713 -0.615321 53.6953 0.320597 19.1623Z" fill="white"/>
    <path d="M489.995 34.3531C489.995 52.5915 472.117 67.3502 450.039 67.3502C427.961 67.3502 410.083 52.5675 410.083 34.3531C410.083 16.1387 427.961 1.35596 450.039 1.35596C472.117 1.35596 489.995 16.1387 489.995 34.3531Z" fill="white"/>
    <path fill-rule="evenodd" clip-rule="evenodd" d="M858.655 187.147V233.247V237.591H793.525V233.247V182.587V7.42677H858.655V32.4566C858.655 36.5122 863.287 38.84 866.503 36.4162C874.182 30.6567 882.365 25.4492 891.004 20.8656L901.371 15.3941C965.158 -18.275 1041.88 27.993 1041.88 100.131V237.591H976.749V100.131C975.573 62.31 925.801 72.4131 925.801 72.4131C925.801 72.4131 885.389 74.5969 866.31 120.889C859.687 137.039 858.655 158.518 858.655 187.147Z" fill="white"/>
    <path fill-rule="evenodd" clip-rule="evenodd" d="M1155.26 167.229C1150.17 163.726 1144.61 158.566 1140.46 150.263C1138.46 146.255 1141.66 141.647 1146.12 142.007C1168.29 143.855 1192.82 144.143 1225.79 139.944C1275.52 131.112 1291.67 123.553 1309.9 115.418C1309.9 98.1633 1307.77 69.6538 1291.19 44.864C1273.02 17.7224 1241.75 0.923828 1196.27 0.923828C1153.65 0.923828 1120.47 12.6828 1098.7 37.3526C1077.58 61.2785 1072.3 91.7559 1072.3 118.106C1072.3 168.309 1094.07 199.938 1120.23 217.985C1144.41 234.687 1169.8 238.887 1176.26 239.751L1176.36 239.775C1212.04 244.478 1240.38 241.695 1263.59 235.407C1287.06 229.048 1303.59 218.633 1316 208.77L1277.65 160.486C1270.09 166.485 1259.36 173.013 1248.3 175.893C1186.56 191.923 1155.26 167.229 1155.26 167.229ZM1244.94 81.3648C1236.73 82.7567 1218.64 84.3645 1208.61 85.7804C1174.72 89.812 1172.52 91.7559 1137.31 96.0035C1139.28 83.2846 1146.57 74.1414 1149.84 71.4776C1158.45 64.4463 1164.09 57.7988 1195.58 55.687C1195.55 55.687 1234.53 55.0151 1244.94 81.3648Z" fill="white"/>
    <path fill-rule="evenodd" clip-rule="evenodd" d="M667.105 115.105C653.234 110.881 638.307 108.769 622.3 108.769C608.646 108.769 595.903 109.969 584.096 112.369C572.313 114.529 561.442 118.008 551.531 122.832C541.62 127.632 533.748 134.255 527.941 142.654C522.325 150.838 519.518 160.557 519.518 171.86C519.518 180.763 520.741 188.922 523.165 196.386C525.589 203.585 528.685 209.608 532.428 214.408C536.172 218.968 541.044 222.951 547.043 226.311C553.043 229.671 558.754 232.19 564.178 233.87C569.601 235.55 576.249 236.87 584.12 237.83C591.991 238.79 598.543 239.39 603.774 239.63C603.774 239.63 652.106 241.526 690.191 218.776C690.767 225.255 691.918 231.686 693.598 237.998L693.67 238.238H758.801L757.361 228.951C755.993 220.143 755.321 211.24 755.321 202.313V171.236V153.957V134.951C755.321 127.152 754.841 119.352 753.689 111.649C749.609 84.1234 739.506 61.9014 724.7 44.7669C703.245 19.929 675.48 9.89791 653.57 6.94617C586.352 -2.10104 538.788 25.5925 513.038 46.4947L553.715 98.0902C570.921 84.1234 601.134 66.5569 644.979 72.4364C655.706 73.8763 667.249 78.5559 675.672 88.299C679.847 93.1226 684.239 100.346 687.143 111.217C688.631 116.809 683.063 121.68 677.736 119.448C671.784 116.929 667.105 115.105 667.105 115.105ZM687.143 170.132C687.143 171.476 686.567 172.796 685.535 173.66C682.559 176.179 676.392 178.939 666.985 181.915C655.274 185.395 642.435 187.122 628.42 187.122C600.99 187.122 587.264 182.251 587.264 172.532C587.264 167.9 590.719 164.54 597.631 162.453C604.542 160.125 615.965 158.061 631.876 158.061C660.241 158.061 678 161.253 685.175 166.292C686.399 167.18 687.143 168.62 687.143 170.132Z" fill="white"/>
</svg>
