<svg width="225" height="249" viewBox="0 0 225 249" fill="none" xmlns="http://www.w3.org/2000/svg">
<g opacity="0.9">
<path d="M4.35114e-06 249C5.82396 230.311 24.3955 216.64 46.4252 216.64C49.254 216.64 52.0177 216.869 54.709 217.298C63.4341 218.702 72.0506 214.519 76.5289 206.745C89.7974 183.689 115.994 168 146.141 168C189.695 168 225 200.737 225 241.122C225 243.871 224.834 246.487 224.515 249H4.35114e-06Z" fill="#CEE4FE"/>
<path d="M55.5852 186.005C54.7382 170.928 51.9572 155.876 53.1405 140.817C53.8313 131.999 55.8735 123.032 53.8433 114.418C52.0173 106.676 47.0979 100.104 42.9593 93.311C36.286 82.3609 31.3606 69.8672 31.8952 57.0551C32.4298 44.2431 39.3253 31.1907 51.0262 25.941C62.727 20.6912 78.7586 25.6286 83.3477 37.5998C86.9636 47.0301 83.2395 57.4816 80.1041 67.0802C65.9646 110.424 64.0785 157.69 74.7162 202.024C76.2539 208.445 78.0679 214.957 77.5333 221.54C76.6383 232.61 60.847 246.918 53.6931 232.37C51.0442 226.976 52.3416 220.062 53.3747 214.47C55.1467 204.89 56.1318 195.778 55.5852 186.005Z" fill="#0B79F9"/>
<path d="M80.4343 151.052C85.1735 147.833 90.3932 145.382 95.2285 142.307C97.2407 141.027 99.2409 139.58 100.454 137.525C101.668 135.477 101.914 132.678 100.454 130.798C98.448 128.209 94.2554 128.527 91.5705 130.407C88.8855 132.288 87.2157 135.243 85.1915 137.82C83.2333 140.312 80.7526 142.565 77.7012 143.4C74.6439 144.235 70.9498 143.31 69.292 140.607C67.7723 138.132 67.8084 134.306 65.0994 133.267C62.9731 132.456 60.5824 134.264 59.9157 136.438C59.249 138.613 59.8016 140.949 60.3602 143.153C62.7268 152.506 66.4809 174.928 70.7456 183.554C67.5921 165.75 73.1302 156.008 80.4343 151.052Z" fill="#0B79F9"/>
<path d="M103.86 129.062C105.421 130.588 106.983 132.107 108.539 133.633C110.257 135.315 112.065 137.147 112.515 139.507C113.008 142.09 111.692 144.775 109.704 146.499C107.716 148.223 105.151 149.118 102.592 149.737C98.4476 150.734 94.0328 151.07 89.9423 149.857C70.6431 144.12 84.7767 110.435 103.86 129.062Z" fill="#232789"/>
<path d="M36.3279 162.242C36.1898 166.176 37.4151 170.147 39.7577 173.312C42.1784 176.592 45.7463 179.049 47.4582 182.743C49.158 186.407 48.7496 190.665 49.5965 194.618C50.4434 198.57 53.5789 202.745 57.5733 202.162C60.1261 201.789 62.0602 199.489 62.793 197.014C63.5258 194.54 63.3036 191.897 63.0693 189.326C62.0902 178.43 63.8622 159.485 56.9366 150.175C49.2841 139.891 36.3279 152.698 36.3279 162.242Z" fill="#232789"/>
<path d="M5.02154 52.4475C5.21975 47.7143 7.05176 43.1973 8.85974 38.7885C11.3224 32.7819 13.7851 26.7753 16.2478 20.7687C17.4912 17.7354 18.7586 14.66 20.7348 12.0051C28.0989 2.11819 42.6469 0.706643 55.3508 0.190075C61.6157 -0.0622017 67.9887 -0.308471 74.0614 1.18116C83.6058 3.51773 91.4324 9.84868 98.8866 15.9934C104.245 20.4083 109.795 25.0694 112.431 31.3403C116.51 41.0349 112.684 51.9429 108.858 61.7337C106.04 68.9596 102.34 77.0265 94.688 79.5012C82.5547 83.4295 74.8542 76.6841 65.1235 87.0395C59.0929 93.4605 51.7949 98.7583 42.2744 97.8694C22.6689 96.0494 4.28272 70.2811 5.02154 52.4475Z" fill="#232789"/>
<path d="M153.975 110.222C153.899 109.027 153.895 107.761 154.484 106.716C155.119 105.588 156.448 104.886 157.739 105.015C159.026 105.145 160.196 106.102 160.568 107.343C160.911 108.496 160.598 109.729 160.28 110.89C159.754 112.833 159.248 114.785 158.701 116.72C158.37 117.885 158.019 119.143 156.574 118.566C153.937 117.513 154.112 112.491 153.975 110.222Z" fill="#0B79F9"/>
<path d="M151.12 111.333C150.368 110.401 149.516 109.461 148.375 109.089C147.146 108.684 145.692 109.069 144.827 110.034C143.962 110.999 143.749 112.495 144.313 113.661C144.84 114.743 145.905 115.441 146.921 116.08C148.621 117.158 150.314 118.253 152.023 119.31C153.055 119.95 154.162 120.639 154.839 119.235C156.072 116.682 152.549 113.097 151.12 111.333Z" fill="#0B79F9"/>
<path d="M157.146 126.836C157.221 128.031 157.225 129.297 156.636 130.342C156.001 131.47 154.672 132.172 153.381 132.042C152.094 131.913 150.924 130.956 150.552 129.715C150.21 128.562 150.523 127.329 150.841 126.167C151.367 124.224 151.873 122.273 152.42 120.338C152.75 119.172 153.101 117.915 154.547 118.491C157.184 119.544 157.004 124.567 157.146 126.836Z" fill="#0B79F9"/>
<path d="M160 125.724C160.752 126.656 161.604 127.596 162.745 127.968C163.973 128.373 165.427 127.989 166.292 127.024C167.157 126.058 167.371 124.562 166.806 123.397C166.28 122.314 165.214 121.616 164.199 120.977C162.498 119.899 160.806 118.804 159.097 117.747C158.065 117.108 156.958 116.418 156.281 117.822C155.048 120.375 158.57 123.961 160 125.724Z" fill="#0B79F9"/>
<path d="M146.469 120.28C145.241 120.944 143.833 122.047 144.179 123.397C144.401 124.266 145.337 124.797 146.231 124.843C147.125 124.889 147.99 124.55 148.818 124.208C154.601 121.813 160.154 118.834 165.327 115.311C166.058 114.81 167.709 114.016 167.262 112.9C166.915 112.031 165.394 111.994 164.659 112.111C161.78 112.562 158.6 114.421 155.95 115.604C152.729 117.041 149.566 118.6 146.469 120.28Z" fill="#232789"/>
</g>
</svg>
