<svg width="270" height="449" viewBox="0 0 270 449" fill="none" xmlns="http://www.w3.org/2000/svg">
<path d="M196.543 105.968C192.518 187.003 259.555 259.68 252.697 340.517" stroke="white" stroke-width="33" stroke-miterlimit="10" stroke-linecap="round"/>
<path d="M171.31 298.907C172.209 217.094 175.805 178.436 195.584 128.988C202.722 111.151 169.934 121.463 150.722 122.03L132.903 122.551C114.976 123.082 96.9589 107.762 100.285 125.392C118.266 220.691 117.367 298.907 117.367 298.907L116.468 324.979C120.271 280.863 169.278 279.074 173.108 324.979L171.31 298.907Z" fill="white" stroke="white" stroke-width="34.3296" stroke-miterlimit="10" stroke-linecap="round" stroke-linejoin="round"/>
<path d="M116.9 463.125C114.517 415.189 112.144 348.938 118.635 301.379C119.947 291.732 121.728 281.852 126.879 273.59C132.031 265.328 135.914 258.953 145.606 259.942C154.048 260.805 157.59 267.054 161.726 274.471C165.861 281.888 167.48 290.393 168.954 298.754C177.09 344.821 181.747 412.033 184.687 458.72" stroke="white" stroke-width="34.3296" stroke-miterlimit="10" stroke-linecap="round"/>
<path d="M141.668 280C148.542 251.156 125.035 218.177 106.094 192C87.1537 165.823 64.0987 155.397 47.4069 128.512C28.4068 106.512 2.41307 55.2827 27.0943 17" stroke="white" stroke-width="33" stroke-miterlimit="10" stroke-linecap="round"/>
<path d="M198.366 60.8961C178.079 38.0479 141.209 32.2282 114.728 47.488C88.2479 62.7478 74.8036 97.3338 83.7715 126.538C87.0835 137.331 93.2158 147.406 102.002 154.503C115.182 165.153 133.194 168.259 150.056 166.566C170.767 164.488 196.945 158.985 206.858 138.805C218.971 114.158 216.884 81.7489 198.366 60.8961Z" fill="white"/>
<path d="M149.375 77.471L173.338 112.941C183.984 128.708 168.801 147.013 145.995 145.887C123.197 144.761 109.882 125.049 122.033 110.409L149.375 77.471Z" fill="#FF5B22"/>
<path fill-rule="evenodd" clip-rule="evenodd" d="M164.854 108.233C151.182 100.697 137.057 104.28 133.216 106.177C123.469 110.991 111.636 107.023 106.796 97.3111C101.957 87.5989 105.934 75.8234 115.689 71.0013C127.825 65.0077 156.044 58.5229 183.916 73.8734C193.444 79.1187 196.899 91.0681 191.629 100.554C186.374 110.039 174.381 113.478 164.854 108.233Z" fill="#FF5B22"/>
<path d="M126.01 80.8873C129.972 81.0838 133.02 84.4472 132.831 88.4077C132.634 92.3681 129.942 87.1303 125.98 86.9338C122.018 86.7373 118.29 91.6576 118.486 87.6972C118.683 83.7443 122.048 80.6908 126.01 80.8873Z" fill="#2F3396"/>
<path d="M172.944 83.2077C176.907 83.4042 179.954 86.7675 179.765 90.728C179.568 94.6884 176.876 89.4507 172.914 89.2542C168.952 89.0576 165.224 93.978 165.421 90.0175C165.617 86.0646 168.99 83.0112 172.944 83.2077Z" fill="#2F3396"/>
<path d="M146.631 133.046C154.283 133.424 160.914 128.617 162.714 121.89C163.099 120.431 161.897 119.041 160.4 119.154L158.85 119.275C151.122 119.865 143.349 119.479 135.719 118.119L134.313 117.869C132.838 117.605 131.492 118.874 131.742 120.363C132.853 127.234 138.978 132.668 146.631 133.046Z" fill="#2F3396"/>
</svg>
