<svg width="572" height="506" viewBox="0 0 572 506" fill="none" xmlns="http://www.w3.org/2000/svg">
<path d="M506.57 406.708C495.371 415.789 478.733 416.525 463.562 416.767C296.678 419.447 129.705 419.721 -37.1829 417.554C-54.1394 417.336 -71.7462 416.982 -86.9357 410.302C-102.125 403.623 -114.104 388.65 -110.283 374.002C-107.157 362.019 -94.6808 353.681 -81.8322 349.042C-68.9836 344.398 -55.0318 342.374 -42.4479 337.193C-29.8639 332.013 -13.5262 327.341 -11.248 305.41C-8.8577 282.362 -17.845 259.234 2.88315 245.159C14.0858 237.557 29.2709 235.43 39.8099 227.117C53.2056 216.549 55.5959 199.114 57.7172 183.33C60.7936 160.449 65.5967 136.705 81.2168 118.284C96.8369 99.8638 126.355 88.7591 149.698 98.8977C165.883 105.923 176.763 121.715 194.356 125.186C206.891 127.659 219.923 123.091 230.601 116.761C241.279 110.432 250.526 102.313 261.465 96.3451C294.866 78.1236 342.682 84.6003 368.419 110.837C380.994 123.656 388.654 140.323 403.7 150.843C422.711 164.134 452.686 167.327 461.853 187.195C472.926 211.193 442.95 237.406 449.919 262.586C454.413 278.823 472.414 288.544 486.021 300.118C504.287 315.66 516.05 337.078 518.588 359.411C520.104 372.742 517.723 397.667 506.57 406.708Z" fill="white"/>
<path d="M790.418 493.056C779.984 502.6 764.482 503.373 750.345 503.628C594.852 506.444 439.276 506.732 283.779 504.455C267.98 504.225 251.575 503.853 237.422 496.833C223.269 489.813 212.108 474.077 215.668 458.683C218.581 446.089 230.205 437.326 242.177 432.45C254.149 427.569 267.148 425.442 278.873 419.998C290.598 414.553 305.821 409.643 307.943 386.594C310.171 362.371 301.797 338.064 321.11 323.272C331.548 315.283 345.697 313.047 355.517 304.31C367.998 293.203 370.225 274.88 372.202 258.291C375.068 234.244 379.543 209.289 394.097 189.93C408.651 170.57 436.155 158.9 457.904 169.555C472.984 176.939 483.122 193.536 499.514 197.184C511.193 199.783 523.336 194.982 533.285 188.329C543.235 181.677 551.851 173.144 562.042 166.872C593.164 147.722 637.716 154.529 661.697 182.103C673.414 195.575 680.551 213.092 694.57 224.148C712.283 238.117 740.212 241.472 748.753 262.353C759.07 287.575 731.141 315.124 737.634 341.587C741.821 358.652 758.594 368.869 771.272 381.033C788.291 397.367 799.251 419.876 801.616 443.348C803.029 457.358 800.81 483.554 790.418 493.056Z" fill="white"/>
<path d="M538.412 98.6004C534.921 172.541 589.436 239.017 583.634 312.772" stroke="white" stroke-width="33" stroke-miterlimit="10" stroke-linecap="round"/>
<path d="M517.331 274.614C518.273 199.956 521.306 164.685 537.571 119.606C543.441 103.344 516.661 112.68 500.983 113.153L486.442 113.588C471.813 114.031 457.151 100.01 459.82 116.106C474.249 203.114 473.315 274.491 473.315 274.491L472.515 298.282C475.731 258.031 515.723 256.51 518.731 298.411L517.331 274.614Z" fill="white" stroke="white" stroke-width="34.3296" stroke-miterlimit="10" stroke-linecap="round" stroke-linejoin="round"/>
<path d="M472.515 424.352C470.694 380.6 468.926 320.136 474.344 276.75C475.44 267.949 476.917 258.937 481.142 251.409C485.366 243.88 488.552 238.072 496.457 238.997C503.344 239.804 506.218 245.514 509.574 252.292C512.929 259.07 514.228 266.835 515.41 274.469C521.931 316.527 525.559 377.874 527.839 420.486" stroke="white" stroke-width="34.3296" stroke-miterlimit="10" stroke-linecap="round"/>
<path d="M493.192 257.292C498.875 230.986 479.778 200.836 464.39 176.904C449.002 152.973 430.217 143.406 416.665 118.832C401.218 98.7124 380.138 51.9027 400.375 17.023" stroke="white" stroke-width="33" stroke-miterlimit="10" stroke-linecap="round"/>
<path d="M540.412 57.4735C523.291 36.5747 492.084 31.1764 469.622 45.0395C447.159 58.9025 435.686 90.433 443.206 117.106C445.983 126.963 451.15 136.172 458.572 142.669C469.705 152.419 484.95 155.296 499.233 153.791C516.776 151.943 538.958 146.984 547.404 128.592C557.725 106.128 556.04 76.5471 540.412 57.4735Z" fill="white"/>
<path d="M498.884 72.4833L519.085 104.909C528.06 119.322 515.156 135.992 495.847 134.91C476.545 133.829 465.319 115.809 475.646 102.477L498.884 72.4833Z" fill="#FF5B22"/>
<path fill-rule="evenodd" clip-rule="evenodd" d="M511.913 100.592C500.355 93.6833 488.385 96.9192 485.127 98.6413C476.861 103.012 466.851 99.3627 462.778 90.4882C458.704 81.6136 462.102 70.8769 470.375 66.4995C480.667 61.0586 504.58 55.2075 528.143 69.2821C536.197 74.0914 539.093 85.0043 534.606 93.648C530.131 102.292 519.967 105.402 511.913 100.592Z" fill="#FF5B22"/>
<path d="M479.09 75.546C482.445 75.7347 485.017 78.8112 484.847 82.425C484.67 86.0388 482.404 81.2525 479.049 81.0638C475.694 80.8751 472.525 85.3564 472.702 81.7427C472.878 78.1358 475.736 75.3573 479.09 75.546Z" fill="#2F3396"/>
<path d="M518.828 77.7743C522.182 77.963 524.754 81.0396 524.584 84.6533C524.407 88.2671 522.141 83.4808 518.786 83.2921C515.432 83.1034 512.263 87.5848 512.439 83.971C512.616 80.3642 515.479 77.5856 518.828 77.7743Z" fill="#2F3396"/>
<path d="M496.418 123.193C502.897 123.556 508.524 119.185 510.065 113.051C510.396 111.72 509.381 110.448 508.113 110.548L506.8 110.655C500.255 111.175 493.673 110.805 487.216 109.545L486.026 109.314C484.778 109.069 483.635 110.225 483.842 111.584C484.766 117.856 489.939 122.83 496.418 123.193Z" fill="#2F3396"/>
</svg>
